PathFileType	4	(X/Y/Z)	9_coords_data.trc
DataRate	CameraRate	NumFrames	NumMarkers	Units	OrigDataRate	OrigDataStartFrame	OrigNumFrames
30.0	30.0	8	21	m	30.0	20	49
Frame#	Time	THUMB_TIP	THUMB_IP	THUMB_MCP	THUMB_CMC	INDEX_TIP	INDEX_DIP	INDEX_PIP	INDEX_MCP	MIDDLE_TIP	MIDDLE_DIP	MIDDLE_PIP	MIDDLE_MCP	RING_TIP	RING_DIP	RING_PIP	RING_MCP	PINKY_TIP	PINKY_DIP	PINKY_PIP	PINKY_MCP	WRIST
X1	Y1	Z1	X2	Y2	Z2	X3	Y3	Z3	X4	Y4	Z4	X5	Y5	Z5	X6	Y6	Z6	X7	Y7	Z7	X8	Y8	Z8	X9	Y9	Z9	X10	Y10	Z10	X11	Y11	Z11	X12	Y12	Z12	X13	Y13	Z13	X14	Y14	Z14	X15	Y15	Z15	X16	Y16	Z16	X17	Y17	Z17	X18	Y18	Z18	X19	Y19	Z19	X20	Y20	Z20	X21	Y21	Z21
18	0.6333333333333304	0.5405573727976093	-0.0021675033345643913	-0.13674970374155132	0.5198934737252892	-0.010784248137606811	-0.13157718171373844	0.4943780711466227	-0.017060886874596948	-0.11489221730221241	0.4819441697721273	-0.024768304265225582	-0.07275098080189171	0.5253498471938952	-0.014772850563095075	-0.1195312197778387	0.5358420649228509	-0.002565622053356198	-0.12783163779377046	0.5365440597257096	0.022176497226692793	-0.1322298840156851	0.49997641829278683	0.025005147253718052	-0.11058635304086958	0.5295868011276251	-0.02553821455909222	-0.10739048108571497	0.5408363331142065	-0.011726536343249272	-0.11065936085482417	0.5478538839126309	0.016462369133113497	-0.11301502187377813	0.5105988196656109	0.02916426046192533	-0.09187572042785827	0.5286464888271843	-0.021866228970737756	-0.09236787577366798	0.5431465362585545	-0.011203899221028824	-0.09339906382465077	0.5541533768902359	0.0111246259698482	-0.09271612816945926	0.5217036198069376	0.0260504155957606	-0.07377002294231724	0.5230412999730284	-0.027511198274683846	-0.07836491867080861	0.5392539869341102	-0.022045692174344045	-0.07783858743563862	0.5510251253854044	-0.005545247909020445	-0.07236248867763503	0.5263282645449202	0.01371289075723392	-0.0544719154409532	0.462283081001861	-0.023011742144276925	-0.051989820119430985
19	0.6666666666666637	0.537508373681277	-0.005351514621537157	-0.14198353628286228	0.5170841240668147	-0.012764499769239546	-0.13450706125206868	0.49271926793682397	-0.01803131564985272	-0.11586746800960299	0.48126059270878674	-0.025131029262177473	-0.07334473492903376	0.5342097329782357	-0.01610293280675168	-0.12412408390713964	0.5411669137705527	-0.000913842255397812	-0.13111616254269484	0.5378651249932325	0.02392867598802151	-0.13310546171460072	0.5017046634309422	0.023563556356156146	-0.11061271174363091	0.5398861238198	-0.027186145670984985	-0.11214486777304855	0.5479609256359427	-0.011071844071546377	-0.11391316061993412	0.5502357097487273	0.017977842428084423	-0.11332102759991913	0.5123195508054411	0.02761974858472893	-0.09174450198401138	0.537803772097939	-0.024837811466913995	-0.09590932264515392	0.5498613800321646	-0.011440345201966129	-0.09556005400344184	0.5568689333731242	0.012282307627565658	-0.09267736118194328	0.5232688557380666	0.024173705181743443	-0.0735893995011716	0.5304750677572512	-0.030366867542264364	-0.08102062960101514	0.5454029201556594	-0.022374983132510184	-0.07851284046465112	0.554207712704133	-0.0047171336264150154	-0.0713373266852457	0.5273035622273279	0.01198330128435876	-0.05407043316288823	0.4622830810018609	-0.023011742144276925	-0.05198982011943096
20	0.6999999999999968	0.5340157239297788	-0.008694764479735384	-0.1468723351926115	0.514087163923182	-0.014866551866835054	-0.13724105612325063	0.4909931412058026	-0.019094904967845494	-0.11680561766985947	0.4805533320699533	-0.025508731629692027	-0.07391315664511969	0.5446084974283317	-0.01559205180547607	-0.1298370920493041	0.5467187408765916	0.0017532534683634138	-0.1346002063190222	0.538997454641561	0.02566506311618799	-0.13381475661157324	0.5034320935390858	0.021948906106606048	-0.11068617341392212	0.5515276585150133	-0.02690116811616794	-0.11721766632331987	0.5556161439502852	-0.009258024974269863	-0.11715612836702863	0.5524682712396555	0.01947170679935406	-0.11340073762659944	0.5140036831652501	0.025993330832612793	-0.09162708829454833	0.5486862038405997	-0.02671767711506612	-0.09968119286438012	0.557213414258873	-0.010984717459846638	-0.09749929851090444	0.5593684348209125	0.013279289664575367	-0.09232302343676263	0.5247773495058594	0.022243609307787016	-0.07340692912369001	0.5395889999295905	-0.03247426806451115	-0.08361011919268593	0.5522521456108107	-0.021971946283965038	-0.07888296585541618	0.5572837954266633	-0.003618045341201692	-0.0700156754398572	0.5282545757205929	0.01017935724466501	-0.053650482616666245	0.462283081001861	-0.023011742144276925	-0.05198982011943101
21	0.7333333333333302	0.5304433180547182	-0.01188682808999264	-0.1510481365378559	0.5111750602560672	-0.01686475797170761	-0.13956099348584106	0.4893550061087808	-0.02015587351375503	-0.11760936950267337	0.47989585106137755	-0.025907969733651948	-0.07439678134984196	0.5553257085135204	-0.012277791045789632	-0.13590396104338523	0.5520839407594067	0.005440374800686265	-0.13779010548779144	0.5400270885951322	0.02720289343661264	-0.13417971333322096	0.5051691518748801	0.02024194418705605	-0.11072538479557129	0.563575789687544	-0.02396433388850394	-0.12180957379893276	0.563267334865219	-0.005960557582611825	-0.11986820975528376	0.5545257688842908	0.02102379852425762	-0.11317200936261743	0.515614759178375	0.024365133574467124	-0.09147139359374215	0.5605369440546715	-0.026080197779758896	-0.10307866276870942	0.564713568539977	-0.00903986912598298	-0.09893342365859109	0.5616456807897937	0.01458303796151017	-0.09167213558498166	0.5261643091543179	0.0203785737043628	-0.0731733554544276	0.5499980026901135	-0.03309799431173455	-0.085280485710232	0.5594308421140919	-0.020566321903073503	-0.07842638277524183	0.5601372863620997	-0.0022255492599519977	-0.06823182469861194	0.5291223696919033	0.008415498062700921	-0.053207627321785744	0.4622830810018609	-0.023011742144276925	-0.051989820119430985
22	0.7666666666666633	0.5271670098969369	-0.01481346922043647	-0.15435895537874705	0.5086157449585427	-0.01875639729247436	-0.14138575656718777	0.4879626497812136	-0.021266477828410957	-0.11823474891526689	0.47936720243044606	-0.026285831447623198	-0.07475125349360742	0.5646748248428859	-0.006447118297408405	-0.14118590426850275	0.5567824941566973	0.0098286510579354	-0.14028565528544554	0.540992097986495	0.028415581106328025	-0.13418653623723656	0.5068685862836434	0.01850598041459328	-0.11071268147932098	0.574942697376322	-0.018345751175472436	-0.12525200889821694	0.5702651313123478	-0.001225284381276226	-0.12164507218322226	0.5563620686559749	0.02273298683488001	-0.11258330419314044	0.5170962413527038	0.022817949260976023	-0.09126815679567107	0.5724531500851312	-0.022460492685925426	-0.10553197537485029	0.5717324934917662	-0.005481537388777213	-0.0995156865609815	0.5635916129542948	0.016316272085809325	-0.09064091641273286	0.5273604060200003	0.018722331850062	-0.07285802141514663	0.5609428716281242	-0.03177919122250883	-0.08532956291945518	0.5663832933186119	-0.017979902357206146	-0.07678664546453393	0.5625983840578448	-0.0004505267518425393	-0.06586842803796444	0.5298447557169725	0.006848487154089922	-0.052646942587795786	0.462283081001861	-0.023011742144276925	-0.05198982011943101
23	0.7999999999999965	0.5247088516147581	-0.01729487750482739	-0.15664895526914266	0.5068009472961387	-0.020396806149629132	-0.14258890542578395	0.48700812082713485	-0.022235805410759313	-0.11863724364449055	0.47899650945247385	-0.026623473719463275	-0.07497430226402246	0.571856999483031	0.0004596673144180441	-0.14488730238438177	0.5606270617103714	0.014326899307271379	-0.14179079233618652	0.5420441024158906	0.02923576614738166	-0.1337652614251793	0.5085455944079444	0.016808486566642022	-0.1105909485451026	0.5848470186477944	-0.010770259286923878	-0.12724481136280721	0.5761941315869429	0.0043461288494052175	-0.12228271954342357	0.5579941556167157	0.024435187548309756	-0.1115775738052692	0.5184800652123014	0.021391903290186698	-0.09094936492916869	0.5829108973037617	-0.016356117900897083	-0.10644980107847457	0.5777703976513614	-0.0006918094451662249	-0.09915564561485887	0.5651462888301783	0.018332153010303553	-0.08921076210805978	0.5283850077829905	0.01731005489662707	-0.0724094417666199	0.5714019992447262	-0.02848575639084716	-0.08371860143025672	0.5725377500575899	-0.014393840412892267	-0.07406831779912254	0.5645371338764091	0.0015813639728569084	-0.06304130530457216	0.530434523715127	0.005484315173691523	-0.05196599929925011	0.4622830810018609	-0.023011742144276925	-0.05198982011943101
24	0.8333333333333297	0.5233906841729093	-0.019238620456310862	-0.15786085326481591	0.5059368086515009	-0.021690669109259098	-0.1431180690404315	0.48658065292352215	-0.023085716789057464	-0.11878264059946658	0.4788661073403815	-0.026943150967384977	-0.07501626094560992	0.5771829007650465	0.007241341898575726	-0.14691635529837646	0.5637625735323402	0.018466965201408114	-0.14223872786237965	0.5432998686317196	0.029682568372526696	-0.13288470270429345	0.5102131240190123	0.015258743202249958	-0.11028256359334268	0.5929554528431292	-0.0019177754606725106	-0.12770025831658077	0.5809901308792333	0.010309218341105875	-0.12175621147359747	0.559463076057767	0.02611754633892993	-0.11009035417004698	0.519782627016288	0.0201469889083582	-0.09044443019496151	0.5916493726811953	-0.008316328655501026	-0.10600789071796132	0.5825959186974541	0.004980133783831886	-0.09786915263618903	0.5662982030281215	0.020598979900526282	-0.08735173427688542	0.5292619741549507	0.01617652371805134	-0.07174787365945515	0.5805467036413677	-0.023545046527277402	-0.08076887938830546	0.5774706268153849	-0.010108883494531873	-0.07061962944960898	0.5658575292192451	0.0037599643835277696	-0.059961156681065664	0.5309034560663788	0.004320855295220638	-0.051085255464329626	0.4622830810018609	-0.023011742144276925	-0.051989820119430985
25	0.8666666666666629	0.5232707179151279	-0.020482995743152155	-0.1581309518611702	0.5060451268649243	-0.022497026136277132	-0.143057044121413	0.48669362038977526	-0.023714482927928993	-0.11870838920778945	0.47896919472417154	-0.027137100834673245	-0.07490760228790641	0.5811352529438303	0.013517641308865902	-0.14762279659552155	0.5662811925598197	0.02211761869272344	-0.1418437586907051	0.5446525746655001	0.029913704462866342	-0.13167351937955327	0.5117482083670654	0.014074329213115577	-0.10976340837581758	0.5988886539440758	0.0074133206052284795	-0.12676824444406176	0.5845578091554517	0.016391344025510568	-0.1202858079338261	0.5606305017309814	0.02788177325199437	-0.10824988064898225	0.5208797834927926	0.01926401723368454	-0.08976305826770142	0.5980215845312046	0.0007886104517749182	-0.10428986039471788	0.5860620806180671	0.01129883468696613	-0.09583377071463234	0.5669342972362962	0.023177768889199424	-0.08519427805195992	0.5299057791654401	0.015484787751285922	-0.07089645567622774	0.5878972738481895	-0.017391042954850944	-0.07676094620029417	0.5810658771187575	-0.005346267017056872	-0.06669837240759852	0.5665364970842597	0.006125116939350361	-0.056792995840409255	0.5311919856284781	0.003532546900158251	-0.05009019481814875	0.462283081001861	-0.023011742144276925	-0.05198982011943101
